<?xml version="1.0" encoding="UTF-8"?>
<svg id="Calque_1" xmlns="http://www.w3.org/2000/svg" version="1.1" viewBox="0 0 992.13 992.13">
  <!-- Generator: Adobe Illustrator 29.5.1, SVG Export Plug-In . SVG Version: 2.1.0 Build 141)  -->
  <defs>
    <style>
      .st0 {
        fill: #400d13;
      }

      .st1 {
        fill: #511413;
      }

      .st2 {
        fill: #983539;
      }

      .st3 {
        fill: #e25e5b;
      }

      .st4 {
        fill: #d1504c;
      }

      .st5 {
        fill: #490a0b;
      }

      .st6 {
        fill: #230e0c;
      }

      .st7 {
        fill: #cd4d49;
      }

      .st8 {
        fill: #fefefe;
      }

      .st9 {
        fill: #cec9c8;
      }

      .st10 {
        fill: #2b0101;
      }
    </style>
  </defs>
  <path class="st0" d="M389.63,20.81c.85-3.15,3.27-7.28,6.1-9.39,5.75-4.29,13.71-3.06,20.55-2.4,4.3,1.42,9.71,3.91,14.2,4.41,40.23,15.19,77.52,37.56,111.44,61.7,68.94,49.05,126.49,107.24,175.87,171.93,14.11,18.48,27.81,37.04,40.26,56.44,21.88,34.13,40.33,70.21,56.86,106.58,7.38,16.65,14.09,33.52,20.11,50.59,3.14,8.99,5.59,18.4,9.23,27.21,12.31,2.79,29.12,5.19,41.79,4.04,5.69-.51,11.33-3.15,17.08-2.82,2.86.17,5.87,1.07,7.36,3.39,2.75,4.25-.12,11.44-1.7,15.7-6.81,18.31-20.76,33.63-34.75,48.09,6.77-1.99,21.08-10.35,27.54-7.43,1.51.69,2.42,1.89,2.88,3.31,2.96,9.18-10.07,29.02-15.79,37.16-18.79,26.73-47.24,50.68-77.8,66.83,13.79,2.26,27.21,5.16,35.69,15.91,1.98,2.51,4.46,6.43,3.46,9.56-.51,1.59-1.25,2.45-2.94,3.16-6.48,2.74-15.22,3.74-22.19,5.45-15.98,3.94-32.29,8.23-47.8,13.41-10.26,12.33-19.15,25.5-29.33,37.88-11.12,13.51-24.02,26.25-36.72,38.62-81.31,79.13-235.56,179.94-357.36,196.48-40.56,5.51-81.49-2.11-114.79-23.78-3.42-2.22-7-4.6-9.65-7.55-3.55,1.08-7.78-.05-11.08-1.44-16.82-7.1-30.93-28.6-36.73-43.55-3.29-8.48-4.31-16.65-2.33-25.48,2.5-11.17,9.29-20.82,13.84-31.33,12.85-29.67,22.24-59.98,22.74-91.94.23-14.39-.28-38.14-4.85-51.82-3.05-9.13-10.7-17.11-15.3-25.72-16.68-31.19-33.4-66.47-35.95-101.26-6.1-19.64-7.29-64.48-4.05-85.23,2.02-15.87,5.47-31.26,9.99-46.72-13.94-17.63-23.47-38.36-32.4-58.22-23.61-52.52-41.58-106.27-47.68-162.73-1.58-14.61-7.31-44.8,4.07-56.6,4.11-4.26,9.87-6.36,16.1-6.74,11.33-.7,23.14,1.77,34.18,3.74,67.15,12.03,149.75,47.89,201.59,87.41,9.14-3.76,17.99-8.12,27.11-11.95,5.8-2.43,12.08-4.25,17.64-7.09,2.2-6.61-3.49-45.56-4.3-56.09-3.16-40.8-7.48-99.44,2.95-139.07,1.31-4.27,4.47-8.27,4.87-12.65Z"/>
  <path class="st1" d="M155.52,487.52c3.67,4.47,1.06,29.36,1.2,36.2.28,10.7.99,21.38,2.12,32.04.49,4.48,2.45,10.56,2.11,14.87-.09,1.16-.41,1.43-1.39,2.12-6.1-19.64-7.29-64.48-4.05-85.23Z"/>
  <path class="st8" d="M400.98,20.4c1.56-.38,3.2-.82,4.8-.99,6.18-.67,14.09,2.21,19.8,4.12,38.04,12.73,72.23,34.97,103.62,57.39,17.28,9.94,32.92,23.36,47.97,35.75,37.4,30.78,70.13,64.71,100.61,100.87,43.29,51.36,79.26,103.92,108.5,162.54,11.16,22.37,21.82,45.48,30.58,68.67,4.7,12.45,7.67,25.63,13.16,37.78-15.88-6.04-30.12-13.82-44.73-21.89l-1.1.95c-3.93.62-14.62-6.73-18.56-8.66,2.22,2.21,4.49,4.39,6.79,6.53l-.35.69-3.37-1.27c20.16,21.29,56.37,37,87.37,39.52,6.56.53,13.11.63,19.69.64-37.83,21.29-86.85,25.75-130.62,24.79,38.77,10.81,88.26,6.11,124.23-10.34,10.09-4.61,19.02-11.23,29.13-15.66l-5.47,9.82c1,4-.35,6.35-2.77,9.72-.72,1.01-1.89,2.9-3.09,3.47-1.89,4.01-7.38,7.37-10.13,11.29-3.93,9.32-24.53,27.71-34.47,31.72-6.85,2.76-20.03,6.53-27.52,5.91-.78.03-1.36.14-2.09.39-1.59.53-2.53.94-4.3.71l-1.2-1.77c-22.01,8.45-44.99,11.05-68.85,11.22,33.46,9.67,80.98-.09,113.44-9.37,8.19-2.25,16.23-5.28,24.28-7.92,5.05-2,9.8-4.13,14.6-6.57-15.21,31.7-45.36,59.24-76.7,79.08-9.81,6.22-23.06,11.81-31.65,19,4.42,1.24,8.73,2.55,13.02,4.13,6.32,1.66,34.08,8.55,37.47,13.43.11.16.16.33.25.49-6.59,2.41-15.04,2.71-22.07,4.78-29.48,8.68-58.41,19.19-88.75,25.37l-1.4,1.93c.49.59.44.83,1.3.95,5.92.81,16.6-1.48,21.38-.34.44.1,1.5,1.01,1.92,1.29l11.62-1.12c-11.3,13-22.1,26.62-34.09,39.12-68.86,71.71-159.24,137.48-255.04,179.1-10.41,4.53-40.13,18.58-50.29,19.45-.95.08-1.4.08-2.24-.26-.27.23-.53.47-.8.7-3.39,2.78-11.81,5.03-16.18,6.4-25.82,8.08-50.56,12.79-78.02,11.93-7.84-.24-16.12-.91-23.73-2.57-12.38-2.72-43.55-13.89-52.05-21.95l.2-.75c5.53-.91,28.16,6.78,35.94,8.06,10.29,1.7,20.78,2.11,31.22,1.79,32.66-1.01,62.39-9.32,91.57-22.13,14.25-6.26,27.48-14.24,40.57-22.18,41.13-24.73,79.11-53.3,113.26-85.23-4.78.2-28.56,24.47-36.02,28.37l-.77-.55c3.68-5.09,11.45-10.03,16.44-14.31,10.14-8.58,20.01-17.39,29.59-26.45,29.71-28.25,56.08-57.51,81.14-89.05l-3.22-1.47c-5.66,4.83-13.92,16.91-21.07,18.63l-1.87,2.14c-.05.59.04,1.78-.19,2.28-3.7,8.16-77.72,75.51-91.07,86.96-10.11,8.68-20.7,17.09-31.39,25.21-54.89,41.65-128.22,92.81-205.03,87.55-9.21-.63-19.38-1.51-28.19-3.99-6.21-1.74-11.93-4.34-18.35-5.6l.04-.84c5.05-1.17,17.74,7.58,20.83,3.25-5.75.53-16.22-3.55-20.72-6.66-1.51,2.19-3.16,4.04-5.45,5.64-3.24,2.27-7.33,3.47-11.45,2.97-3.22.54-6.42-.84-9.21-2.18-17.83-8.47-28.13-31.19-33.5-47.65,7.19,9.35,15.34,17.13,25.97,23.53,5.96,3.59,16.1,9.89,23.56,8.65,2.56.65,5.29-.3,7.75-1,17.77-5.05,40.25-20.07,48.82-35.08,1.99-3.48,3.26-7.55,1.72-11.35-2.52-6.2-10.45-10.16-16.93-12.65-25.3-9.71-51.1-7.28-76.06,1.24,8.42-11.35,18.32-21.85,26.78-33.23,18.75-25.21,50.51-76.75,54.91-106.77,3.52-24.01-12.08-47.91-27.98-66.32-19.17-22.2-43.7-39.18-75.84-43.07-7.07-15.87-10.74-33.38-14.41-50.07l13.27,4.7c.67-.88.8-1.42,1.07-2.43-4.65-1.83-9.26-3.25-14.14-4.52-.66-8.51-1.46-17.06-1.78-25.59-.12-3.1-.86-6.81,1.63-9.16l-1.21-1.21c.09-3.16,5.44-6.71,7.97-8.91-1.44.16-1.89-.27-3.13-.83-1.83.83-3.68,2.5-5.3,3.66-.06-15.15.64-30.39,3.43-45.37h1.45c.81-.45,1.56-.61,2.48-.84-.79-.83-1.43-1.83-2.11-2.73-.52-2.63.26-4.56,1.1-7.05-.62-1.17-.83-1.04-.46-2.38l1.84.7c-.46-2.06-.11-3.63.38-5.67,2.28-9.44,6.6-18.22,10.75-27.11,26.74-57.41,80.51-115.92,138.12-151.78,13.45-8.37,27.57-16.31,42.14-23.06,8.01-3.71,17.05-6.46,24.55-10.87l.72-.43c1.49,13.97,5.05,34.65,8.35,48.26.84,3.48,2.88,8.21,6.66,9.94,1.84.84,2.74.59,4.58-.02,2.25-2.54,2.6-5.34,2.16-8.5-.74-5.39-2.34-10.82-3.39-16.18-2.12-10.74-4.01-21.51-5.7-32.31-8.83-55.16-22.56-168.37-.95-218.96Z"/>
  <path class="st9" d="M529.2,80.91c17.28,9.94,32.92,23.36,47.97,35.75,37.4,30.78,70.13,64.71,100.61,100.87,43.29,51.36,79.26,103.92,108.5,162.54,11.16,22.37,21.82,45.48,30.58,68.67,4.7,12.45,7.67,25.63,13.16,37.78-15.88-6.04-30.12-13.82-44.73-21.89-3.11-1.81-6.11-3.73-9.11-5.68.1-.15.22-.3.3-.46,2.01-4.39-8.31-26.61-10.57-32.3-12.04-30.32-25.1-60.79-40.33-90-12.55-24.07-26.63-47.38-41.09-70.58-20.74-33.26-42.77-65.14-68.39-95.72-22.17-26.45-47.23-52.67-73.84-75.72-4.45-3.86-10.58-8.16-13.07-13.26Z"/>
  <path class="st9" d="M745.71,710.55l11.62-1.12c-11.3,13-22.1,26.62-34.09,39.12-68.86,71.71-159.24,137.48-255.04,179.1-10.41,4.53-40.13,18.58-50.29,19.45-.95.08-1.4.08-2.24-.26,8.45-6.08,18.58-10.68,27.95-15.58,14.78-7.72,29.83-15.51,44.34-23.59,56.03-31.21,112.79-69.58,158.47-111.96,23.63-21.92,46.24-44.49,63.97-70.52,2.45-3.59,6.92-8.85,6.8-13.06,8.07,1.64,20.23-.49,28.5-1.59Z"/>
  <path class="st5" d="M876.35,567.01c5.05-2,9.8-4.13,14.6-6.57-15.21,31.7-45.36,59.24-76.7,79.08-9.81,6.22-23.06,11.81-31.65,19-9.54,1.21-35.31,4.19-43.59,3.43l-.5-.04c-12.59.52-25.2.36-37.76-.48,23.16-2.23,45.8-7.62,67.09-15.97,3.94-4.23,14.29-9.05,19.65-12.31,27.01-16.44,49.68-31.94,64.59-58.23,8.19-2.25,16.23-5.28,24.28-7.92Z"/>
  <path class="st9" d="M876.35,567.01c5.05-2,9.8-4.13,14.6-6.57-15.21,31.7-45.36,59.24-76.7,79.08-9.81,6.22-23.06,11.81-31.65,19-9.54,1.21-35.31,4.19-43.59,3.43l-.5-.04c3.74-2.58,21.08-5.49,27.17-7.32,32.01-9.56,56.46-26.72,80.15-47.61,6.92-6.1,31.94-31.25,31.94-38.67l-1.43-1.3Z"/>
  <path class="st9" d="M852.07,574.93c8.19-2.25,16.23-5.28,24.28-7.92l1.43,1.3c-5.18,6.22-9.58,12.77-15.44,18.56-19.99,19.77-65.68,51.53-94.5,58.59,3.94-4.23,14.29-9.05,19.65-12.31,27.01-16.44,49.68-31.94,64.59-58.23Z"/>
  <path class="st3" d="M167.72,522.07l1.65-.37.37.23c3.28,4.85,20.92,13.42,27.02,17.17,13.22,8.14,24.92,18.07,35.73,28.59l5.11,5.39c-.8,1.49-.72,1.8-2.49,2.51l4.5,5.4c11.18,13.72,20.66,27.73,27.59,43.55,2.15,5.45,4.16,11,6.62,16.35.33,2.05.38,4.92,1.59,6.69l.31,1.69-2.35-3.3c-6.65-12.33-14.32-23.79-22.97-35.11-1.77-.63-2.82-.53-4.64-.28-23.44-25-33.21-32.54-65.99-46.82.67-.88.8-1.42,1.07-2.43-4.65-1.83-9.26-3.25-14.14-4.52-.66-8.51-1.46-17.06-1.78-25.59-.12-3.1-.86-6.81,1.63-9.16h1.16Z"/>
  <path class="st5" d="M180.84,561.32c27.75,9.03,52.99,28.17,69.56,49.53-1.77-.63-2.82-.53-4.64-.28-23.44-25-33.21-32.54-65.99-46.82.67-.88.8-1.42,1.07-2.43Z"/>
  <path class="st1" d="M167.72,522.07l1.65-.37.37.23c3.28,4.85,20.92,13.42,27.02,17.17,13.22,8.14,24.92,18.07,35.73,28.59l-5.9-.99c-10.29-9.76-21.64-18.62-33.89-26.43-7.22-4.59-15.73-8.84-22.28-14.14-1.6-1.3-2.18-2.21-2.69-4.06Z"/>
  <path class="st5" d="M226.58,566.7l5.9.99,5.11,5.39c-.8,1.49-.72,1.8-2.49,2.51l-8.52-8.89Z"/>
  <path class="st9" d="M795.62,662.65c6.32,1.66,34.08,8.55,37.47,13.43.11.16.16.33.25.49-6.59,2.41-15.04,2.71-22.07,4.78-29.48,8.68-58.41,19.19-88.75,25.37-3.34.51-6.76,1.22-10.14,1.34,10.99-7.98,26.25-13.07,38.44-19.66,15.2-8.22,29.29-18.04,44.81-25.76Z"/>
  <path class="st2" d="M268.53,933.03c5.8,3.7,22.35,4.43,29.98,4.6,23.23.54,48.12-3.49,69.77-10.85,69.69-23.72,147.7-88.94,198.83-136.4,11.53-10.82,22.95-21.73,34.26-32.73,6.72-6.51,13.25-13.39,20.51-19.44-.05.59.04,1.78-.19,2.28-3.7,8.16-77.72,75.51-91.07,86.96-10.11,8.68-20.7,17.09-31.39,25.21-54.89,41.65-128.22,92.81-205.03,87.55-9.21-.63-19.38-1.51-28.19-3.99-6.21-1.74-11.93-4.34-18.35-5.6l.04-.84c5.05-1.17,17.74,7.58,20.83,3.25Z"/>
  <path class="st4" d="M171.22,458.77c6.63,3.33,11.62,7.24,15.72,12.96,4.52,8.75,6.39,15.66,4.63,25.22-1.31,4.26-3.27,7.75-6.23,11.33l-.13,4.74c-4.31,4.28-9.16,7.35-15.49,8.9l-.37-.23-1.65.37h-1.16s-1.21-1.22-1.21-1.22c.09-3.16,5.44-6.71,7.97-8.91-1.44.16-1.89-.27-3.13-.83-1.83.83-3.68,2.5-5.3,3.66-.06-15.15.64-30.39,3.43-45.37h1.45c.81-.45,1.56-.61,2.48-.84-.79-.83-1.43-1.83-2.11-2.73-.52-2.63.26-4.56,1.1-7.05Z"/>
  <path class="st8" d="M164.89,514.76c-.06-15.15.64-30.39,3.43-45.37h1.45c6.66,7.26,10.73,14.95,9.52,24.5-.87,6.82-4.15,12.06-9.09,17.22-1.83.83-3.68,2.5-5.3,3.66Z"/>
  <path class="st0" d="M169.76,469.39c.81-.45,1.56-.6,2.48-.84,6.86,6.43,10.63,13.38,10.38,22.36-.22,8.1-3.6,14.79-9.29,21.03-1.44.16-1.89-.27-3.13-.83,4.94-5.16,8.22-10.4,9.09-17.22,1.21-9.55-2.86-17.23-9.52-24.5Z"/>
  <path class="st0" d="M165.35,520.85c7.38-1.83,14.64-7.93,19.99-12.56l-.13,4.74c-4.31,4.28-9.16,7.35-15.49,8.9l-.37-.23-1.65.37h-1.16s-1.21-1.22-1.21-1.22Z"/>
  <path class="st5" d="M877.32,528.61c4.2-.89,4.63-2.71,8.05-4.46l1.82.68c-1.89,4.01-7.38,7.37-10.13,11.29-3.93,9.32-24.53,27.71-34.47,31.72-6.85,2.76-20.03,6.53-27.52,5.91-.78.03-1.36.14-2.09.39-1.59.53-2.53.94-4.3.71l-1.2-1.77c15.9-7.08,32.34-16.05,46.1-26.02,8.14-5.91,15.57-12.56,23.74-18.44Z"/>
  <path class="st9" d="M815.08,573.75c23.52-7.61,44.53-22.06,61.99-37.63-3.93,9.32-24.53,27.71-34.47,31.72-6.85,2.76-20.03,6.53-27.52,5.91Z"/>
  <path class="st1" d="M623.75,736.07c11.27-11.74,23.18-23.28,33.86-35.44,6.95-7.91,12.78-17.35,20.46-24.6-24.5,43.46-56.88,80.71-92.36,117.46-7.75,8.03-19.3,20.83-28.05,27.42-4.78.2-28.56,24.47-36.02,28.37l-.77-.55c3.68-5.09,11.45-10.03,16.44-14.31,10.14-8.58,20.01-17.39,29.59-26.45,29.71-28.25,56.08-57.51,81.14-89.05l-3.22-1.47c-5.66,4.83-13.92,16.91-21.07,18.63Z"/>
  <path class="st5" d="M644.82,717.44c1.57-1.55,3.15-3.64,5.54-4.11.24,1.87-1.16,3.97-2.32,5.58l-3.22-1.47Z"/>
  <path class="st5" d="M239.6,580.99l3.71-1.09c10.82,13.88,20.04,27.42,26.7,43.24l-2.82,1.4c-6.92-15.81-16.41-29.82-27.59-43.55Z"/>
  <path class="st1" d="M757.28,446.76c6.18,4.24,12.28,8.5,18.91,12.2,3,1.95,6,3.87,9.11,5.68l-1.1.95c-3.93.62-14.62-6.73-18.56-8.66,2.22,2.21,4.49,4.39,6.79,6.53l-.35.69-3.37-1.27c-5.43-3.25-10.41-9.13-14.72-13.51.96-.96,2.18-1.77,3.27-2.6Z"/>
  <path class="st1" d="M245.76,610.57c1.81-.24,2.87-.34,4.64.28,8.65,11.33,16.32,22.79,22.97,35.11l-2.03,2.32c-7.25-13.29-16.08-25.61-25.58-37.71Z"/>
  <path class="st1" d="M712.37,708.06c3.38-.11,6.81-.82,10.14-1.34l-1.4,1.93c.49.59.44.83,1.3.95,5.92.81,16.6-1.48,21.38-.34.44.1,1.5,1.01,1.92,1.29-8.27,1.09-20.43,3.22-28.5,1.59-6.63-.33-13.1-.66-19.46-2.44,4.89-.34,9.87-.51,14.62-1.64Z"/>
  <path class="st0" d="M189.15,469.27c5.29,7.41,8.85,17.35,6.46,26.15-.07.24-.16.48-.24.72l-3.8.81c1.76-9.56-.12-16.47-4.63-25.22l2.21-2.46Z"/>
  <path class="st5" d="M273.36,645.96l2.35,3.3-.31-1.69c1.54.22,2.89.35,4.32.93l.64,4.13c2.23,5.62,2.68,12.11,3.3,18.02-3.6-7.64-8.07-14.99-12.33-22.37l2.03-2.32Z"/>
  <path class="st1" d="M171.22,458.77c-.62-1.17-.83-1.04-.46-2.38l1.84.7c7.14,1.91,12.98,5.77,16.36,11.79.07.12.12.26.18.38l-2.21,2.46c-4.1-5.72-9.09-9.63-15.72-12.96Z"/>
  <path class="st1" d="M893.06,511.64c1,4-.35,6.35-2.77,9.72-.72,1.01-1.89,2.9-3.09,3.47l-1.82-.68c-3.42,1.75-3.85,3.57-8.05,4.46,5.71-5.33,10.73-11.12,15.73-16.97Z"/>
  <path class="st6" d="M267.19,624.53l2.82-1.4c2.58,5.45,4.84,10.88,6.84,16.52l-3.03,1.23c-2.46-5.35-4.47-10.9-6.62-16.35Z"/>
  <path class="st10" d="M191.58,496.96l3.8-.81c-1.65,6.62-4.72,12.05-10.16,16.88l.13-4.74c2.96-3.57,4.92-7.07,6.23-11.33Z"/>
  <path class="st5" d="M742.65,435.73c4.62,3.92,9.69,7.43,14.63,11.03-1.1.84-2.32,1.64-3.27,2.6-4.03-4.42-7.71-8.96-11.36-13.64Z"/>
  <path class="st0" d="M276.84,639.66c1.02,2.93,2.03,5.87,2.88,8.85-1.43-.57-2.78-.71-4.32-.93-1.21-1.77-1.26-4.64-1.59-6.69l3.03-1.23Z"/>
  <path class="st1" d="M237.59,573.08c1.89,2.22,4.07,4.47,5.72,6.81l-3.71,1.09-4.5-5.4c1.76-.71,1.68-1.02,2.49-2.51Z"/>
  <path class="st0" d="M414.55,55.7c.26,0,.53-.02.79-.02.39,0,.78,0,1.17,0,4.5-.02,8.98,2.48,12.67,4.57,13.65,7.7,25.45,18.37,37.08,28.25,17.66,15.01,33.2,30.83,48.71,47.57,52.08,56.21,91.2,117.39,121.66,184.69,8.85,19.57,18.54,40.64,23.46,61.32.72,3.02,1.57,6.17-.45,8.91-1.92,1.11-3.06,1.07-5.31.96-11.65-6.45-22.14-15.65-33.45-22.71-29.87-18.65-61.18-33.06-95.07-45.05-21.12-7.47-42.55-13.03-64.83-17.08-4.74-.86-19.06-2.42-22.17-5.4-16.63-15.95-28.5-124.28-30.32-150.45-1.44-20.71-1.44-41.37-1.22-62.11.1-9.31-.64-26.58,7.29-33.43Z"/>
  <path class="st3" d="M456.52,289.11c-8.63-16.27-13.84-34.66-17.53-52.32-6.2-28.4-10.14-57.14-11.8-86.02-.5-7.39-1.54-14.83-1.49-22.23.07-9.59,1.35-19,2.16-28.54.43-5.13.73-17.26,3.86-21.25,8.58,3.22,24.47,18.36,31.58,24.63,9.65,7.76,18.21,16.85,26.84,25.49,54.98,55.01,98.79,120.45,129.65,188.41,6.55,14.42,10.81,29.15,16.44,43.8-15.62-11.29-32.36-21.31-50.03-29.94-11.15-5.39-23.61-10.06-34.22-16.19,9.16-11.64,10.08-30.01,7.3-43.55-3.11-15.17-10.73-30.15-25.43-39.21-7.9-4.87-17.68-8.07-27.4-6.43-7.25,1.22-13.34,5.05-17.45,10.4-8.33,10.87-8.4,25.67-5.44,38.04,1.98,8.29,5.42,16.01,9.88,23.5-5.83-1.58-12.58-2.4-18.18-4.35-6.34-1.08-12.6-2.5-18.74-4.25Z"/>
  <path class="st4" d="M456.52,289.11c-8.63-16.27-13.84-34.66-17.53-52.32-6.2-28.4-10.14-57.14-11.8-86.02-.5-7.39-1.54-14.83-1.49-22.23.07-9.59,1.35-19,2.16-28.54.43-5.13.73-17.26,3.86-21.25,8.58,3.22,24.47,18.36,31.58,24.63-3.52,1.12-10.1,2.51-11.89,5.53-3.31,5.57-2.98,14.66-3.38,20.86-2.74,43.02,3.31,75.93,12.86,117.74,2.9,12.68,5.14,25.83,10.4,37.95,1.17,2.68,2.55,5.29,3.96,7.89-6.34-1.08-12.6-2.5-18.74-4.25Z"/>
  <path class="st3" d="M508.61,234.04c2.2-.17,4.67.1,6.8.55,11.45,2.45,21.08,12.23,26.73,20.83,11.59,17.66,9.13,34.6,3.22,53.36-.63,2.01-1.18,3.03-3.26,4.05l-3.24-1c-8.78-2.86-17.54-5.61-26.5-8.02-4.89-4.46-8.87-8.87-11.98-14.49-6.56-11.83-10.37-29.86-5.2-42.57,2.56-6.28,6.73-9.85,13.44-12.72Z"/>
  <path class="st0" d="M619.2,544.59c2.77-.05,5.5-.19,7.76,1.39,1.68,2.81,1.16,6.28.77,9.34-6.05,47.74-40,106.18-82.96,136.21-45.5,31.81-97.3,44.39-154.84,38.55-3.4.01-8.95.66-11.65-1.49-.88-.7-1.09-1.34-1.14-2.37-.26-5.08,2.5-11.79,3.89-16.73,10.11-35.64,30.15-68.49,58.29-95.6,44.38-41.88,115.34-67.37,179.87-69.31Z"/>
  <path class="st8" d="M562.51,593.23c3.81.06,7.59-.05,11.39-.19-.04.93-.09,1.86-.16,2.78-2.61,32.33-20.1,59.89-47.74,80.92-26.25,19.96-57.62,31.7-92.8,29.45-5.12-.52-10.12-1.2-15.16-2.12,5-20.08,18.5-41.61,33.21-57.55,21.46-23.26,50.3-42.32,83.74-49.66,9.09-2,18.24-2.78,27.54-3.64Z"/>
  <path class="st3" d="M294.23,360.03c6.71-19.56,20.96-45.38,35.07-61.85-1.13,4.93-2.01,10.04-3.73,14.83-1.04,6.09-2.92,12.1-3.6,18.23l-1.43,9.25-.26,2.39c-.52,4.05-1.02,8.1-1.5,12.16-.25,2.11-.25,4.57-.82,6.61-.2,3.77-.05,7.89-.84,11.58-.51,5.22-.5,10.47-.58,15.7l-.56,11.75c.27,2.56.74,5.18.39,7.74l-.24,7.93c1.84,15.41,2.46,33.19,1.59,48.67.2,3.15.22,6.2.03,9.35,1.87-3.57,3.67-7.18,5.63-10.72,8.79-15.34,25.23-27.44,43.26-33.45,3.09-.9,6.33-1.37,9.51-1.94,5.14-.34,10.02-.51,15.17-.2,7.42-.17,15.32,3.27,20.6,7.73,7.73,6.53,11.05,15.06,11.44,24.33-.37,3.96-.76,8.22-2.62,11.89-1.17-1.51-1.3-3.67-1.63-5.46-.26,1.56-.36,3.11-1.13,4.55l-3.42,1c-2.64-5.69-5.84-10.36-12.08-13.48-7.43-3.72-14.49-3.16-22.44-1.35-3.77,1.7-7.09,3.49-10.44,5.76-13.64,11.62-20.27,24.89-26.75,40.21-5.87,14.59-10.73,30.09-14.16,45.28l-2.71,13.24-.68,2.96c-.32,2.73-.7,5.45-1.14,8.18l-1.44,8.01c-1.19,12.49-3.2,25.4-2.91,37.92-.11,2.53-.18,4.95-.81,7.42.43,10.33,1.27,37.24-.53,46.47.01,2.64-.16,5.41.19,8.03.98,11.89-1.31,29.48-3.6,41.38-4.14-11.84-5.67-29.5-7.84-42.19l-2.22-9.75-5.73-26.15c-1.72-6.4-3.11-12.88-4.6-19.33l-1.06-4.77-2.97-11.3c-5.15-20.36-10.76-40.42-17.05-60.53-.71-2.57-1.74-5.16-2.61-7.7-.01-.06-.02-.12-.04-.18-4.38-13.4-19.39-56.14-33.78-62.73-2.59-1.19-5.48-1.46-8.23-.54-6.51,2.18-9.24,8.35-11.81,13.52-.51,2.02-.54,4.19-2.16,5.7l-.96-.91c-2.62-9.31-2.32-20.64,1.6-29.64,2.75-6.32,7.51-11.86,14.68-14.62,5.44-2.09,11.52-2.43,17.09-.48,12.96,4.54,20.76,17.33,26.1,27.94.94-5.47.36-11.56.48-17.11.16-7.56.72-15.05,1.46-22.59.08-1.86.45-3.71.73-5.56-.04-4.84,1.12-9.79,1.91-14.57.71-6.58,1.94-13.1,3.68-19.53,3.15-13.27,7.33-26.33,12.51-39.09Z"/>
  <path class="st0" d="M217.11,490.5c-.51,2.02-.54,4.19-2.16,5.7l-.96-.91c-2.62-9.31-2.32-20.64,1.6-29.64,2.75-6.32,7.51-11.86,14.68-14.62,5.44-2.09,11.52-2.43,17.09-.48,12.96,4.54,20.76,17.33,26.1,27.94l.3.83c.26-.07.53-.15.79-.22,1.13-.28.68-.23,1.83-.06.17,7.39.56,14.78.69,22.17-.09-.2-.18-.41-.26-.61-1.91-4.69-2.7-9.66-4.22-14.45-3.67-11.57-11.49-27.05-24.66-32.5-4.42-1.83-9.08-2.22-13.71-.74-7.2,2.31-12.82,8.09-15.76,14.18-2.74,5.68-5.05,15.56-2.42,21.5.23.51.27.52.59.85l.48,1.08Z"/>
  <path class="st1" d="M216.63,489.43c1.12-5.35,4.3-10.91,9.52-14.03,2.89-1.73,6.4-2.42,9.81-1.63,8.04,1.86,13.19,10.52,16.78,16.46,8.9,14.74,16.15,31.86,20.94,47.97l-2.71,2.24c-.01-.06-.02-.12-.04-.18-4.38-13.4-19.39-56.14-33.78-62.73-2.59-1.19-5.48-1.46-8.23-.54-6.51,2.18-9.24,8.35-11.81,13.52l-.48-1.08Z"/>
  <path class="st0" d="M270.97,540.44l2.71-2.24,1.58,4.45c7.95,20.39,15.23,45.2,19.28,66.5.74,2.96,1.63,5.95,2.14,8.95l-.81,1.47-2.27.41-2.97-11.3c-5.15-20.36-10.76-40.42-17.05-60.53-.71-2.57-1.74-5.16-2.61-7.7Z"/>
  <path class="st0" d="M294.23,360.03l2.81-2.4c1.26.63.82.17,1.31,1.41-4.76,12.69-7.69,26-12.55,38.54-1.8,7.9-3.3,15.79-4.92,23.71-2.09-.8-1.94-.78-2.84-2.64.71-6.58,1.94-13.1,3.68-19.53,3.15-13.27,7.33-26.33,12.51-39.09Z"/>
  <path class="st5" d="M294.23,360.03c6.71-19.56,20.96-45.38,35.07-61.85-1.13,4.93-2.01,10.04-3.73,14.83l-3.19,1.69-.97-.3c-8.61,9.15-17.96,32.91-23.06,44.64-.49-1.24-.05-.78-1.31-1.41l-2.81,2.4Z"/>
  <path class="st5" d="M379.16,454.24c-.91.82-1.88,1.55-2.49,2.57l3.37.46c-3.77,1.7-7.09,3.49-10.44,5.76-13.64,11.62-20.27,24.89-26.75,40.21l-3.28-1.55c5.51-15.54,14.89-31.29,29.12-41.88,3.04-2.43,6.67-4.26,10.47-5.58Z"/>
  <path class="st5" d="M309.44,674.67c1.88,11.78,2.6,23.96,5.32,35.59.36-6.95.31-13.87.47-20.83.05-2.03.67-4.04.36-6.04-.19-1.24.12-1.68.71-2.78l2.36.15c.98,11.89-1.31,29.48-3.6,41.38-4.14-11.84-5.67-29.5-7.84-42.19.02-1.91,1.26-3.62,2.22-5.29Z"/>
  <path class="st0" d="M323.37,463.66c8.79-15.34,25.23-27.44,43.26-33.45l.84,3.01c-18.58,7.5-31.81,17.11-42.28,32.83l-1.82-2.39Z"/>
  <path class="st0" d="M339.57,501.7l3.28,1.55c-5.87,14.59-10.73,30.09-14.16,45.28l-3.41.3c-.23-9.83,10.35-37.11,14.29-47.13Z"/>
  <path class="st0" d="M316.12,416.36c1.84,15.41,2.46,33.19,1.59,48.67l-1.56-3.76-.59.05c-1.3,5.17.23,10.73-1.4,15.79-.27-16.05-.45-32.1-.52-48.15.68-4.46-1.13-9.01,2.48-12.61Z"/>
  <path class="st10" d="M321.41,569.2c1.62,1.21,2.15,1.91,2.75,3.72l-1.44,8.01c-1.19,12.49-3.2,25.4-2.91,37.92-1.08-.95-2.06-2.07-3.06-3.09-.12-.84-.23-1.55-.05-2.39,1.12-5.01.49-10.97.83-16.14.51-7.82,1.78-15.57,3.15-23.29.02-1.58.43-3.16.74-4.72Z"/>
  <path class="st6" d="M321.41,569.2c1.62,1.21,2.15,1.91,2.75,3.72l-1.44,8.01c-2.28-2.26-1.94-4.15-2.04-7.01.02-1.58.43-3.16.74-4.72Z"/>
  <path class="st0" d="M379.16,454.24c7.9-2.42,15.28-2.59,22.93.68,8.08,3.45,12.77,8.96,15.89,16.19l-3.42,1c-2.64-5.69-5.84-10.36-12.08-13.48-7.43-3.72-14.49-3.16-22.44-1.35l-3.37-.46c.61-1.02,1.58-1.75,2.49-2.57Z"/>
  <path class="st1" d="M391.31,428.07c7.42-.17,15.32,3.27,20.6,7.73,7.73,6.53,11.05,15.06,11.44,24.33-1.25-1.53-2.62-2.92-4.04-4.32-1.04-5.06-2.76-9.93-6.16-14.18-5.58-6.96-13.44-9.83-22.68-11.21l.84-2.36Z"/>
  <path class="st10" d="M314.17,477.11c1.63-5.06.1-10.62,1.4-15.79l.59-.05,1.56,3.76c.2,3.15.22,6.2.03,9.35,1.87-3.57,3.67-7.18,5.63-10.72l1.82,2.39c-3.99,6.77-6.95,12.61-8.53,20.19-.83,3.97-1.21,7.89-2.59,11.76-.26-6.84-.63-14.08.09-20.89Z"/>
  <path class="st5" d="M275.4,438.78l3.14.98c-2.27,12.77-1.85,26.35-2.15,39.27-1.15-.17-.69-.21-1.83.06-.27.06-.53.14-.79.22l-.3-.83c.94-5.47.36-11.56.48-17.11.16-7.56.72-15.05,1.46-22.59Z"/>
  <path class="st1" d="M302.63,643.83c1.76,8.01,4.53,16.62,5.34,24.72l1.47,6.12c-.96,1.67-2.2,3.39-2.22,5.29l-2.22-9.75-5.73-26.15,3.37-.24Z"/>
  <path class="st5" d="M319,626.26c.43,10.33,1.27,37.24-.53,46.47-.64-4.23.62-9.1-1.01-13.12l-2.15-.55c1.17-1.84.4-21.87.93-26.24.94-.52,1.31-.97,1.97-1.74,0-1.72-.19-3.28.78-4.83Z"/>
  <path class="st5" d="M376.14,428.28c5.14-.34,10.02-.51,15.17-.2l-.84,2.36-4.58-.23c-6.27.65-12.33,1.45-18.42,3.02l-.84-3.01c3.09-.9,6.33-1.37,9.51-1.94Z"/>
  <path class="st0" d="M376.14,428.28c5.14-.34,10.02-.51,15.17-.2l-.84,2.36-4.58-.23-3.03-.17c-2.84-.14-4.33-.32-6.72-1.75Z"/>
  <path class="st5" d="M298.21,624.01c1.2,6.56,2.36,13.43,4.43,19.82l-3.37.24c-1.72-6.4-3.11-12.88-4.6-19.33l3.54-.73Z"/>
  <path class="st5" d="M312.89,400.96l3.08-.27c.27,2.56.74,5.18.39,7.74l-.24,7.93c-3.61,3.59-1.8,8.15-2.48,12.61-1.34-8.14-.8-17.1-.58-25.33l-.17-2.68Z"/>
  <path class="st1" d="M312.89,400.96l3.08-.27c.27,2.56.74,5.18.39,7.74-.63-2.56-.9-3.24-3.3-4.79l-.17-2.68Z"/>
  <path class="st0" d="M315.31,659.07l2.15.55c1.62,4.01.37,8.89,1.01,13.12.01,2.64-.16,5.41.19,8.03l-2.36-.15c-2.02-2.28-.29-17.33-.99-21.54Z"/>
  <path class="st0" d="M313.92,369.25l3.19,3.99c-.51,5.22-.5,10.47-.58,15.7l-1.63-.05c-2.58-2.63-1.12-11.42-1.28-15.17l.3-4.47Z"/>
  <path class="st6" d="M322.38,314.7l3.19-1.69c-1.04,6.09-2.92,12.1-3.6,18.23-1.05-.85-2.16-1.58-3.3-2.33,1.03-4.76,2.46-9.5,3.71-14.22Z"/>
  <path class="st5" d="M312.89,400.96c0-8.97-.52-18.34.73-27.24.16,3.75-1.31,12.54,1.28,15.17l1.63.05-.56,11.75-3.08.27Z"/>
  <path class="st5" d="M278.04,418.65c.9,1.86.75,1.84,2.84,2.64-.58,4.56-1.26,9.11-2.06,13.64l-2.68-1.71c-.04-4.84,1.12-9.79,1.91-14.57Z"/>
  <path class="st0" d="M318.67,328.92c1.14.74,2.25,1.48,3.3,2.33l-1.43,9.25-.26,2.39-3.72-1.91.53-3.35,1.59-8.72Z"/>
  <path class="st1" d="M316.55,340.98l.53-3.35c.95,2.05,1.28,1.93,3.45,2.86l-.26,2.39-3.72-1.91Z"/>
  <path class="st10" d="M419.32,455.81c1.42,1.41,2.79,2.79,4.04,4.32-.37,3.96-.76,8.22-2.62,11.89-1.17-1.51-1.3-3.67-1.63-5.46.33-3.61.33-7.13.21-10.75Z"/>
  <path class="st0" d="M316.55,340.98l3.72,1.91c-.52,4.05-1.02,8.1-1.5,12.16-.32-1.61-2.04-2.98-3.23-4.2-.05-3.31.53-6.58,1-9.86Z"/>
  <path class="st0" d="M316.75,615.75c1,1.03,1.98,2.14,3.06,3.09-.11,2.53-.18,4.95-.81,7.42-.97,1.55-.79,3.12-.78,4.83-.67.76-1.04,1.22-1.97,1.74-.53-5.6.17-11.47.51-17.08Z"/>
  <path class="st0" d="M314.67,359.11c1.15.8,2.37,1.52,3.29,2.54-.2,3.77-.05,7.89-.84,11.58l-3.19-3.99c-.31-3.29.39-6.85.75-10.14Z"/>
  <path class="st10" d="M323.08,558.04c.64-3.08,1.19-6.2,2.2-9.2l3.41-.3-2.71,13.24-2.9-3.74Z"/>
  <path class="st0" d="M323.08,558.04l2.9,3.74-.68,2.96c-.32,2.73-.7,5.45-1.14,8.18-.6-1.8-1.13-2.51-2.75-3.72-.05-2.83.79-6.01,1.25-8.83l.41-2.33Z"/>
  <path class="st5" d="M315.55,350.84c1.19,1.22,2.91,2.6,3.23,4.2-.25,2.11-.25,4.57-.82,6.61-.91-1.02-2.13-1.74-3.29-2.54-.17-2.89.31-5.44.88-8.27Z"/>
  <path class="st0" d="M296.68,618.09l1.52,5.92-3.54.73-1.06-4.77,2.27-.41.81-1.47Z"/>
  <path class="st0" d="M276.13,433.23l2.68,1.71-.28,4.83-3.14-.98c.08-1.86.45-3.71.73-5.56Z"/>
  <path class="st3" d="M728.54,466.96c.96,3.7,1.3,7.51,1.75,11.28.41,2.9.77,5.61.51,8.54,2.6,29.78-1.71,61.13-11.06,89.79-1.73,4.82-3.51,9.62-5.33,14.41-3.06,7.39-5.8,15.95-10.21,22.76-6.62,14.45-25.35,45.17-37.12,55.74-3.45,4.18-6.87,8.57-11.12,12.15-8.3,11.31-27.07,29.74-39.52,37.88-6.95,5.6-14.58,11.54-22.58,15.92-37.81,24.97-80.2,38.24-125.95,47.13-30.36,5.91-60.6,11.1-89.29,22.19-14.66,5.71-29.17,12.45-42.85,19.8-6.37,3.88-12.35,8.25-18.71,12.1.12-1.5.89-2.76,1.54-4.14-.91.55-1.73,1.37-2.85,1.22l2.35-3.1-3.42-.61c42.53-50.23,122.99-76.22,186.64-100.13,38.26-15.85,72.7-33.72,104.64-58.39,64.81-50.04,116.81-127.83,122.56-204.54Z"/>
  <path class="st5" d="M728.54,466.96c.96,3.7,1.3,7.51,1.75,11.28-4.39,4.58-5.27,24.34-6.53,30.99-2.89,8.67-4.67,17.73-8.21,26.2-32.27,76.78-94.56,140.89-175.66,180.81-12.04,5.72-24.33,11.04-36.83,15.94-20.89,7.99-41.73,16.1-62.51,24.31-48.64,19.16-87.74,37.25-122.42,74.13l-3.42-.61c42.53-50.23,122.99-76.22,186.64-100.13,38.26-15.85,72.7-33.72,104.64-58.39,64.81-50.04,116.81-127.83,122.56-204.54Z"/>
  <path class="st0" d="M380.45,800.68c22.39-10.91,57.19-15.95,82.35-20.72,53.45-10.11,86.78-22.41,131.41-49.8l1.12,2.38-1.46,2.88c-37.81,24.97-80.2,38.24-125.95,47.13-30.36,5.91-60.6,11.1-89.29,22.19,1.14-1.32,1.42-2.48,1.82-4.06Z"/>
  <path class="st5" d="M711.08,588l3.33,2.99c-3.06,7.39-5.8,15.95-10.21,22.76-6.62,14.45-25.35,45.17-37.12,55.74l-3.69-1.07c7.61-9.86,15.83-19.66,22.76-29.9,4.7-6.93,8.42-14.39,12.9-21.44,3.11-9.82,8.7-19.18,12.02-29.08Z"/>
  <path class="st5" d="M655.23,677.93c0,1.34-.18,2.57.74,3.7-8.3,11.31-27.07,29.74-39.52,37.88-1.08.05-.68-.01-1.6.18-2.06.42-3.93.59-6.04.65,16.74-13.22,31.83-27.34,46.42-42.4Z"/>
  <path class="st5" d="M730.81,486.78c2.6,29.78-1.71,61.13-11.06,89.79-.84-1.22-2.02-2.09-3.2-3.03,6.86-21.22,12.3-42.68,12.74-64.83,1.41-7.23.31-14.64,1.53-21.92Z"/>
  <path class="st5" d="M329.9,824.19c15.18-9.49,33.21-17.6,50.55-23.5-.39,1.58-.67,2.74-1.82,4.06-14.66,5.71-29.17,12.45-42.85,19.8l-5.88-.36Z"/>
  <path class="st1" d="M608.8,720.33c2.12-.05,3.98-.23,6.04-.65.92-.19.52-.13,1.6-.18-6.95,5.6-14.58,11.54-22.58,15.92l1.46-2.88-1.12-2.38c3.43-3.47,10.13-7.25,14.6-9.84Z"/>
  <path class="st4" d="M730.29,478.24c.41,2.9.77,5.61.51,8.54-1.21,7.28-.12,14.7-1.53,21.92-.07-.14-.15-.28-.21-.43-1.96-4.56-.94-11.52-.86-16.42-.74,4.42-.94,14.12-4.45,17.38,1.26-6.65,2.13-26.42,6.53-30.99Z"/>
  <path class="st1" d="M716.54,573.53c1.18.95,2.36,1.82,3.2,3.03-1.73,4.82-3.51,9.62-5.33,14.41l-3.33-2.99c2.05-4.75,3.73-9.62,5.46-14.46Z"/>
  <path class="st1" d="M329.9,824.19l5.88.36c-6.37,3.88-12.35,8.25-18.71,12.1.12-1.5.89-2.76,1.54-4.14,2.95-3.2,7.57-5.82,11.28-8.32Z"/>
  <path class="st1" d="M663.39,668.41l3.69,1.07c-3.45,4.18-6.87,8.57-11.12,12.15-.92-1.14-.74-2.37-.74-3.7l8.17-9.51Z"/>
  <path class="st3" d="M528.73,385.82c5.31-.76,10.28-1.05,15.68-.97,12.12.33,22.99,4.26,32.53,10.81,2.36,1.88,4.98,3.74,7.12,5.8,3.31,4.13,6.44,8.26,9.36,12.62,1.42,2.67,2.81,5.35,4.19,8.04,3.37,10.22,5.43,19.25,3.29,29.91-1.21,5.27-2.53,10.67-5.04,15.6-1.72,3.5-3.4,7-5.41,10.38-4.22,6.85-8.68,13.41-14.24,19.49-1.98,1.94-4.26,4.82-6.58,6.34-10.62,11.07-28.41,26.12-43.09,32.75l-6.55,3.97c-3.38,2.08-6.81,4.49-10.45,6.18-.51-.91-.74-2.2-1.05-3.2l-4.96,2.71.03,4.19-7.37,4.23c-12.32,6.55-25.18,13.06-36.78,20.58-40.89,26.49-68.52,63.14-87.82,103.95l-5.07,10.98c-2.79,6.83-5.26,14.88-9.36,21.18-3.83,9.58-8.19,19-13.08,28.2-1.13-2.1-.75-3.21-.51-5.43l-1.01-.84-1.36.41-1.03-1.34c1.96-10.41,4.7-20.82,6.95-31.2,4.72-20.85,10.83-40.73,19.15-60.7,20.58-49.03,47.76-73.95,93.5-105.86,20.36-14.04,40.88-27.89,61.56-41.56,3.18-3.52,8.73-6.77,12.57-9.88,8.59-6.85,16.62-14.22,24.06-22.04,5.44-7.31,9.39-13.67,11.02-22.36l-.19-5.64-.11-.51c-1.25-5.65-2.93-9.59-6.51-14.46-6.8-5.96-14.36-6.22-23.45-6.33-8.6,1.64-14.65,4.01-21.08,9.47l-1.74,1.45c-2.13,4.69-4.48,9.79-1.83,14.75.83,1.55,2.3,2.96,3.59,4.23,2.24,1.09,4.44,2.27,6.84,3.06,3.93.57,9.67-.46,13.14-2.1,4.85-2.28,8.1-7.21,9.7-11.71.8-2.26.86-3.78,3.22-4.98,2.64.32,3.21.39,4.87,2.4,2.76,3.35,2.22,8.8,1.3,12.67-1.55,6.53-5.13,11.88-10.47,16.54-4.84,4.65-11.28,7.1-18.43,7.5-.78.04-1.11.02-1.95,0-11.29.69-20.34-1.92-29.44-7.7-2.33-1.39-4.23-3.26-6.2-5.02-2.95-3.55-5.3-7.08-6.59-11.37-1.45-5.37-1.54-9.87-.63-15.32,1.93-6.43,4.85-12.32,8.82-17.97,3.56-5.2,9.39-9.76,14.83-13.4,2.19-1.26,4.68-2.24,7-3.31,3.52-2.69,10.61-3.96,15.08-5.16Z"/>
  <path class="st5" d="M493.62,551.67l9.9-5.42.03,4.19-7.37,4.23c-12.32,6.55-25.18,13.06-36.78,20.58-40.89,26.49-68.52,63.14-87.82,103.95l-4.7,1.66c4.05-10.54,9.92-20.89,15.66-30.78,27.73-47.69,60.24-71.18,111.08-98.41Z"/>
  <path class="st0" d="M366.26,640.45c20.58-49.03,47.76-73.95,93.5-105.86,20.36-14.04,40.88-27.89,61.56-41.56.55,1.27.84,2.21.96,3.58-50.33,34.71-107.75,64.58-138.61,115.92-5.45,9.07-9.45,18.6-13.58,28.17l-3.83-.24Z"/>
  <path class="st5" d="M574.95,493.47l1.25,4.04c-1.98,1.94-4.26,4.82-6.58,6.34-10.62,11.07-28.41,26.12-43.09,32.75l-6.55,3.97-3.23-1.92,7.58-4.52c12.94-7.99,24.82-17,36.43-26.41,4.37-4.94,9.47-9.56,14.19-14.25Z"/>
  <path class="st1" d="M528.73,385.82c5.31-.76,10.28-1.05,15.68-.97,12.12.33,22.99,4.26,32.53,10.81,2.36,1.88,4.98,3.74,7.12,5.8l-3.61,1-5.12-3.91c-12.73-8.93-23.83-10.28-39.66-10.5l-.96.05c-6.37,1.35-12.46,2.95-18.5,5.23l-2.55-2.35c3.52-2.69,10.61-3.96,15.08-5.16Z"/>
  <path class="st5" d="M366.26,640.45l3.83.24c-4.92,11.36-9.51,22.87-12.75,34.71-2.15,7.85-3.06,17.38-6.37,24.79l-.46-.7c-1.46.35-2.21.9-3.4,1.67,4.72-20.85,10.83-40.73,19.15-60.7Z"/>
  <path class="st0" d="M513.13,420.47c.55-.54,1.12-1.08,1.7-1.6,8.27-7.4,18.4-10.32,29.97-10.37-1.84,2.37-3.06,2.49-6.1,3.29-8.6,1.64-14.65,4.01-21.08,9.47l-1.74,1.45c-2.13,4.69-4.48,9.79-1.83,14.75.83,1.55,2.3,2.96,3.59,4.23-.25,1.21-.38,2.56-.8,3.73-3.67-2.03-6.32-4.49-7.58-8.24-2.01-5.98.63-11.56,3.86-16.71Z"/>
  <path class="st1" d="M557.95,461.1l1.5.24,2.56-2.27-.21,2.89c-5.44,9.62-29.14,27.64-39.51,34.64-.12-1.38-.41-2.31-.96-3.58,3.18-3.52,8.73-6.77,12.57-9.88,8.59-6.85,16.62-14.22,24.06-22.04Z"/>
  <path class="st5" d="M549.68,449.21c.69,2.2-.03,2.61-1.27,4.56-.82,1.28-1.67,2.39-2.16,3.81-4.84,4.65-11.28,7.1-18.43,7.5-.78.04-1.11.02-1.95,0-11.29.69-20.34-1.92-29.44-7.7,1.25-.57,2.6-.85,3.95-1.21,7.24,3.79,12.87,4.65,20.73,6.48,2.32.43,5.2.06,7.54-.29,9.45-1.41,15.61-6.52,21.03-13.14Z"/>
  <path class="st1" d="M593.41,414.08c1.42,2.67,2.81,5.35,4.19,8.04,3.37,10.22,5.43,19.25,3.29,29.91l-3.59-.43c1.2-9.07-.12-16.35-1.99-25.3-1.26-3.38-2.82-6.64-4.38-9.93l2.49-2.29Z"/>
  <path class="st5" d="M524.49,444.75c3.93.57,9.67-.46,13.14-2.1,4.85-2.28,8.1-7.21,9.7-11.71.8-2.26.86-3.78,3.22-4.98.44,1.23,1.3,2.93,1.39,4.18-2.39,6.05-6.12,12.39-12.87,15.44-5.03,2.27-10.43,2.28-15.92,1.93l1.34-2.77Z"/>
  <path class="st0" d="M347.11,701.15c1.19-.77,1.94-1.32,3.4-1.67l.46.7c-2.55,11.03-4.98,22.27-8.42,33.11l-1.36.41-1.03-1.34c1.96-10.41,4.7-20.82,6.95-31.2Z"/>
  <path class="st1" d="M550.54,425.97c2.64.32,3.21.39,4.87,2.4,2.76,3.35,2.22,8.8,1.3,12.67-1.55,6.53-5.13,11.88-10.47,16.54.49-1.42,1.34-2.53,2.16-3.81,1.25-1.95,1.97-2.36,1.27-4.56,3.92-7.16,4.32-11.34,2.25-19.07-.09-1.25-.95-2.95-1.39-4.18Z"/>
  <path class="st5" d="M597.29,451.6l3.59.43c-1.21,5.27-2.53,10.67-5.04,15.6-1.72,3.5-3.4,7-5.41,10.38-1.45.07-2.26-.52-3.46-1.14l4.65-9.15c2.31-5.29,4.32-10.56,5.66-16.11Z"/>
  <path class="st5" d="M544.8,408.5c6.32-.13,13.68,1.31,18.33,5.29,1.68,1.44,3.09,3.11,4.33,4.86-1.34-.77-2.67-1.52-4.09-2.2l-1.22,1.67c-6.8-5.96-14.36-6.22-23.45-6.33,3.04-.8,4.26-.92,6.1-3.29Z"/>
  <path class="st6" d="M352.93,712.91c1.41-.95,2.53-1.22,4.21-1.55-3.83,9.58-8.19,19-13.08,28.2-1.13-2.1-.75-3.21-.51-5.43,3.75-6.7,6.4-14.22,9.38-21.22Z"/>
  <path class="st1" d="M586.98,476.87c1.2.63,2.01,1.22,3.46,1.14-4.22,6.85-8.68,13.41-14.24,19.49l-1.25-4.04c4.28-5.35,8.26-10.96,12.02-16.6Z"/>
  <path class="st0" d="M568.96,438.75c1.14,1.4,2.96,3.11,3.21,4.85-2.32,6.79-6.08,12.45-10.38,18.37l.21-2.89-2.56,2.27-1.5-.24c5.44-7.31,9.39-13.67,11.02-22.36Z"/>
  <path class="st0" d="M362.49,690.45l4.01-.27c-2.79,6.83-5.26,14.88-9.36,21.18-1.68.33-2.8.6-4.21,1.55,3.29-7.45,6.65-14.89,9.56-22.46Z"/>
  <path class="st5" d="M483.01,425.66c1.93-6.43,4.85-12.32,8.82-17.97l1.68,3.95c-3.18,5.07-5.56,9.83-7.05,15.47l-3.46-1.44Z"/>
  <path class="st0" d="M491.83,407.69c3.56-5.2,9.39-9.76,14.83-13.4l-1.8,5.21c-4.28,3.67-8.28,7.6-11.35,12.13l-1.68-3.95Z"/>
  <path class="st1" d="M486.78,438.93c1.97,4.81,4.45,8.85,8.1,12.84l-4.65.59c-2.95-3.55-5.3-7.08-6.59-11.37l3.13-2.06Z"/>
  <path class="st1" d="M562.15,418.13l1.22-1.67c1.41.67,2.74,1.43,4.09,2.2,1.49,2.42,3.13,4.8,3.84,7.51-.6,2.45-1.11,4.72-2.52,6.94l-.11-.51c-1.25-5.65-2.93-9.59-6.51-14.46Z"/>
  <path class="st1" d="M584.05,401.46c3.31,4.13,6.44,8.26,9.36,12.62l-2.49,2.29c-3.06-4.89-6.42-9.63-10.48-13.91l3.61-1Z"/>
  <path class="st5" d="M571.29,426.16c1.97,6.06,2.29,11.23.88,17.43-.25-1.74-2.07-3.45-3.21-4.85l-.19-5.64c1.41-2.22,1.91-4.49,2.52-6.94Z"/>
  <path class="st0" d="M483.01,425.66l3.46,1.44c-1.01,4.21-.75,7.67.31,11.82l-3.13,2.06c-1.45-5.37-1.54-9.87-.63-15.32Z"/>
  <path class="st1" d="M366.88,680.86l4.7-1.66-5.07,10.98-4.01.27,4.39-9.59Z"/>
  <path class="st0" d="M508.48,543.54l8.28-4.89,3.23,1.92c-3.38,2.08-6.81,4.49-10.45,6.18-.51-.91-.74-2.2-1.05-3.2Z"/>
  <path class="st5" d="M506.66,394.29c2.19-1.26,4.68-2.24,7-3.31l2.55,2.35c-4.16,1.65-7.66,3.82-11.35,6.18l1.8-5.21Z"/>
  <path class="st1" d="M494.88,451.76l5.5,4.4c-1.34.35-2.7.64-3.95,1.21-2.33-1.39-4.23-3.26-6.2-5.02l4.65-.59Z"/>
  <path class="st1" d="M517.65,441.69c2.24,1.09,4.44,2.27,6.84,3.06l-1.34,2.77c-2.17-.57-4.21-1.32-6.29-2.1.41-1.17.55-2.52.8-3.73Z"/>
  <path class="st1" d="M314.71,830.02l3.42.61-2.35,3.1c1.11.15,1.93-.68,2.85-1.22-.65,1.38-1.42,2.64-1.54,4.14-2.92,3.34-13.31,10.23-17.53,13.52,3.1-7.1,9.11-14.69,15.16-20.14Z"/>
  <path class="st1" d="M340.16,732.35l1.03,1.34,1.36-.41,1.01.84c-.24,2.22-.62,3.32.51,5.43-1.96,5.99-6,12.66-9.82,17.89.88-8.32,3.61-16.98,5.92-25.09Z"/>
  <path class="st5" d="M419.11,466.57c.33,1.79.45,3.95,1.63,5.46-.78,1.79-1.36,3.91-3.3,4.95-1.54-.66-1.78-1.2-2.3-2.64-.26-.71-.4-1.49-.57-2.22l3.42-1c.77-1.43.87-2.99,1.13-4.55Z"/>
  <path class="st1" d="M508.48,543.54c.31,1,.54,2.29,1.05,3.2-1.96,1.29-3.92,2.54-5.98,3.7l-.03-4.19,4.96-2.71Z"/>
  <path class="st8" d="M170.25,427.22c-3.22-5.38-6.38-10.79-9.48-16.23-32.76-57.42-63.56-148.21-64.86-212.62-.15-7.23-1.99-17.06.86-23.93,1.26-3.03,3.99-5.07,7.32-6.31,8.17-3.06,30.02.93,38.28,4.08,1.01.39,1.39.64,2.57.67.28,0,.56-.02.85-.03,9.76,1.25,20.45,5.03,29.86,7.75,55.18,16,110.73,40.76,155.08,74.19-15.74,5.12-29.7,18.39-42.81,27.47-10.51,8.31-20.7,16.93-30.56,25.84-6.89,6.25-13.44,12.95-20.74,18.81-24.63-40.81-59.88-90.22-99.82-120.52-5.64-4.28-14.3-10.67-21.59-12.57-2.36-.61-3.59-.25-5.66.66-.92,1.09-1.57,1.98-1.9,3.33-1.6,6.61.92,15.7,1.65,22.55.9,8.51,1.7,17.19,3.33,25.61,9.18,47.43,36.04,122.11,65.53,163.22-3.61,5.55-5.56,11.98-7.9,18.03Z"/>
  <path class="st9" d="M145.78,172.85c9.76,1.25,20.45,5.03,29.86,7.75,55.18,16,110.73,40.76,155.08,74.19-15.74,5.12-29.7,18.39-42.81,27.47-2.63-4.13-6.26-8.12-9.35-12.01-22.76-28.71-52.76-57.37-87.11-75.5-13.55-7.15-33.38-13.9-45.1-21.52-.19-.13-.38-.26-.57-.38Z"/>
  <path class="st3" d="M126.54,213.71c4.15,2.7,7.8,5.65,11.25,9.01,11.5,10.06,22.32,20.71,32.39,31.9,7.43,8.26,49.53,61.41,49.28,68.18,0,.26-.05.52-.08.79-1.15.29-1.5,0-2.53-.38-4-1.5-9.92-.66-13.86.78-6.17,2.26-10.88,6.88-13.37,12.3-4.55,9.9-.88,25.15,3.83,34.56,1.01,2.02,2.24,3.99,3.41,5.94-3.2,3.48-7.72,11.83-9.69,13.35-1.49-.36-1.4-.62-2.13-1.77-.83-1.3-1.44-2.71-2.09-4.08-5.18-7.78-10.35-15.62-14.64-23.81-6.01-11.47-10.48-23.68-15.09-35.64-14.04-36.42-24.92-72.51-26.68-111.13Z"/>
  <path class="st7" d="M126.54,213.71c4.15,2.7,7.8,5.65,11.25,9.01-1.13,1.96-1.43,2.45-1.22,4.7.98,10.47,6.05,23.07,8.8,33.54,7.06,26.98,12.86,54.22,22.6,80.6,5,13.55,13.89,28.51,15,42.73-5.18-7.78-10.35-15.62-14.64-23.81-6.01-11.47-10.48-23.68-15.09-35.64-14.04-36.42-24.92-72.51-26.68-111.13Z"/>
  <path class="st8" d="M229.89,683.87c-.69,7.03,9.82,13.97,9.85,19.71l-.97.02c-9.6-8.18-25.18-48.98-28.07-62l.62-.52,3.88,2.54c18.78,9.45,48.38,32.98,54.28,52.05.8,2.59.71,3.23-.16,5.73,1.86,4.31,3.18,9.14,3.54,13.74.16,1.99.03,3.05-1.43,4.53-3.21.14-6.2-.25-9.24-1.17-16.5-4.99-25.18-21.79-32.31-34.63Z"/>
  <path class="st1" d="M229.89,683.87c-.69,7.03,9.82,13.97,9.85,19.71l-.97.02c-9.6-8.18-25.18-48.98-28.07-62l.62-.52,3.88,2.54c18.78,9.45,48.38,32.98,54.28,52.05.8,2.59.71,3.23-.16,5.73-11.03-24.51-29.43-40.44-53.93-54.75,2.3,6.2,14.15,34,14.5,37.23Z"/>
  <path class="st8" d="M227.98,761.89c-.11-1.22-.18-2.47-.54-3.66-.13-.41-.28-.82-.38-1.24-.98-4.15-1.66-30.76.49-33.58l1.38.56c10.3,8.69,20.42,15.79,34.45,19.16-2.97,5.7-6.17,19.29-11.95,22.38-3.02.45-5.31-.41-7.81-1.9-3.31-1.97-6.32-4.72-9.26-7.12l-.57,1.39-3.53-1.82-1.25.34c-.27,1.84-.61,3.66-1.03,5.47Z"/>
  <path class="st2" d="M227.98,761.89c-.11-1.22-.18-2.47-.54-3.66-.13-.41-.28-.82-.38-1.24-.98-4.15-1.66-30.76.49-33.58l1.38.56c.15,9.56.7,19.18.38,28.73,1.64,1.21,3.62,2.41,5.04,3.8l-.57,1.39-3.53-1.82-1.25.34c-.27,1.84-.61,3.66-1.03,5.47Z"/>
  <path class="st3" d="M207.62,330.79l2.64.1c7.62.26,11.67,3.29,16.93,7.69-6.36,7.95-12.92,15.77-19.68,23.46-1.37,2.04-2.68,3.79-4.51,5.55l-1.13.02c-4.33-7.21-7.29-18.81-4.55-26.85,1.71-5,5.28-7.63,10.3-9.97Z"/>
  <path class="st8" d="M226.91,772.65c5.27,3.21,10.8,5.71,16.5,8.25-5.87,9.49-16.95,30.42-24.68,37.58-2.42,3.72-4.88,7.43-7.39,11.1,4.46-12.33,8.2-24.64,11.23-37.31,1.55-6.47,2.3-13.27,4.35-19.62Z"/>
  <path class="st4" d="M227.98,761.89c.42-1.81.76-3.64,1.03-5.47l1.25-.34,3.53,1.82c5.74,4.69,9.8,8.02,17.47,10.12l-4.37,6.04c-6.56-3.38-13.14-7.81-18.9-12.16Z"/>
</svg>